<svg xmlns="http://www.w3.org/2000/svg" viewBox="0 0 1024 1024">
  <!-- Widget card with dark background -->
  <rect width="1024" height="1024" fill="none"/>
  <rect x="262" y="212" width="500" height="600" fill="#1c1c1e" rx="32" stroke="#38383a" stroke-width="3"/>

  <!-- Header area -->
  <rect x="302" y="262" width="140" height="24" rx="12" fill="#38383a"/>

  <!-- Header stat pills -->
  <rect x="612" y="258" width="80" height="32" rx="16" fill="rgba(255, 149, 0, 1)"/>
  <rect x="702" y="258" width="50" height="32" rx="16" fill="rgba(52, 199, 89, 0.12)"/>

  <!-- Divider -->
  <line x1="302" y1="312" x2="722" y2="312" stroke="rgba(255,255,255,0.1)" stroke-width="2"/>

  <!-- Loan 1 -->
  <rect x="302" y="352" width="45" height="65" rx="4" fill="#2c2c2e" stroke="#38383a" stroke-width="2"/>
  <rect x="362" y="358" width="180" height="18" rx="9" fill="#38383a"/>
  <rect x="362" y="388" width="140" height="14" rx="7" fill="#2c2c2e"/>
  <rect x="640" y="378" width="65" height="32" rx="16" fill="rgba(52, 199, 89, 0.12)"/>

  <!-- Divider -->
  <line x1="302" y1="437" x2="722" y2="437" stroke="rgba(255,255,255,0.1)" stroke-width="2"/>

  <!-- Loan 2 -->
  <rect x="302" y="477" width="45" height="65" rx="4" fill="#2c2c2e" stroke="#38383a" stroke-width="2"/>
  <rect x="362" y="483" width="165" height="18" rx="9" fill="#38383a"/>
  <rect x="362" y="513" width="150" height="14" rx="7" fill="#2c2c2e"/>
  <rect x="640" y="503" width="65" height="32" rx="16" fill="rgba(255, 149, 0, 1)"/>

  <!-- Divider -->
  <line x1="302" y1="562" x2="722" y2="562" stroke="rgba(255,255,255,0.1)" stroke-width="2"/>

  <!-- Loan 3 -->
  <rect x="302" y="602" width="45" height="65" rx="4" fill="#2c2c2e" stroke="#38383a" stroke-width="2"/>
  <rect x="362" y="608" width="175" height="18" rx="9" fill="#38383a"/>
  <rect x="362" y="638" width="130" height="14" rx="7" fill="#2c2c2e"/>
  <rect x="640" y="628" width="65" height="32" rx="16" fill="rgba(52, 199, 89, 0.12)"/>
</svg>
